<svg width="63" height="66" viewBox="0 0 63 66" fill="none" xmlns="http://www.w3.org/2000/svg">
<path d="M4.78877 8.60449H58.211C60.3184 8.60449 62.0269 6.89607 62.0269 4.78862C62.0269 2.68117 60.3184 0.972748 58.211 0.972748H4.78877C2.68132 0.972748 0.9729 2.68117 0.9729 4.78862C0.9729 6.89607 2.68132 8.60449 4.78877 8.60449Z" fill="#8F8F8F"/>
<path d="M62.0269 12.4203V4.78853C62.0269 2.68108 60.3184 0.972656 58.211 0.972656C56.1035 0.972656 54.3951 2.68108 54.3951 4.78853V12.4203C54.3951 14.5277 56.1035 16.2361 58.211 16.2361C60.3184 16.2361 62.0269 14.5277 62.0269 12.4203Z" fill="#8F8F8F"/>
<path d="M8.60474 12.4203V4.78853C8.60474 2.68108 6.89631 0.972656 4.78886 0.972656C2.68142 0.972656 0.972992 2.68108 0.972992 4.78853V12.4203C0.972992 14.5277 2.68142 16.2361 4.78886 16.2361C6.89631 16.2361 8.60474 14.5277 8.60474 12.4203Z" fill="#8F8F8F"/>
<path d="M16.2365 39.1312C15.6441 39.1312 15.0599 38.9933 14.53 38.7283C14.0002 38.4634 13.5393 38.0788 13.1838 37.6048C12.8832 37.204 12.6644 36.7478 12.54 36.2623C12.4157 35.7769 12.3881 35.2717 12.459 34.7757C12.5299 34.2796 12.6978 33.8023 12.9531 33.3712C13.2084 32.94 13.5461 32.5633 13.947 32.2626L29.2105 20.815C29.864 20.3375 30.6524 20.0801 31.4619 20.0801C32.2713 20.0801 33.0597 20.3375 33.7132 20.815L48.9767 31.5758C49.7994 32.1593 50.3575 33.0449 50.5291 34.0388C50.7007 35.0327 50.4719 36.0542 49.8925 36.8798C49.6033 37.2925 49.2353 37.6438 48.8096 37.9135C48.3838 38.1832 47.9089 38.3659 47.4123 38.451C46.9156 38.5362 46.4069 38.5221 45.9157 38.4096C45.4245 38.2971 44.9604 38.0884 44.5503 37.7956L31.5 28.5994L18.5261 38.368C17.8655 38.8634 17.0622 39.1312 16.2365 39.1312Z" fill="#8F8F8F"/>
<path d="M31.5 65.8426C30.4879 65.8426 29.5173 65.4405 28.8017 64.7249C28.0861 64.0093 27.6841 63.0387 27.6841 62.0267V31.4997C27.6841 30.4877 28.0861 29.5171 28.8017 28.8015C29.5173 28.0859 30.4879 27.6838 31.5 27.6838C32.512 27.6838 33.4826 28.0859 34.1982 28.8015C34.9138 29.5171 35.3158 30.4877 35.3158 31.4997V62.0267C35.3158 63.0387 34.9138 64.0093 34.1982 64.7249C33.4826 65.4405 32.512 65.8426 31.5 65.8426Z" fill="#8F8F8F"/>
</svg>
